{
	"asset":{
		"generator":"Khronos glTF Blender I/O v4.1.63",
		"version":"2.0"
	},
	"scene":0,
	"scenes":[
		{
			"name":"Scene",
			"nodes":[
				8
			]
		}
	],
	"nodes":[
		{
			"name":"\u30dc\u30fc\u30f33",
			"rotation":[
				7.275957614183426e-12,
				1.891749257243447e-10,
				-7.275958724406451e-10,
				1
			],
			"scale":[
				0.9999999403953552,
				0.9999999403953552,
				0.9999999403953552
			],
			"translation":[
				-2.6775524020195007e-09,
				4.470348358154297e-08,
				2.9802322387695312e-08
			]
		},
		{
			"mesh":0,
			"name":"\u7403",
			"skin":0
		},
		{
			"children":[
				1,
				0
			],
			"name":"\u30a2\u30fc\u30de\u30c1\u30e5\u30a2.002",
			"rotation":[
				-0.8498046398162842,
				0.008758033625781536,
				-0.004098590463399887,
				0.527009129524231
			],
			"translation":[
				0,
				0.4641995131969452,
				-1.9039448499679565
			]
		},
		{
			"name":"\u30dc\u30fc\u30f32",
			"rotation":[
				-0.7071067690849304,
				0,
				0,
				0.7071067690849304
			],
			"translation":[
				0,
				-5.960464477539063e-08,
				5.587935447692871e-08
			]
		},
		{
			"mesh":1,
			"name":"\u5186\u9310.001",
			"skin":1
		},
		{
			"children":[
				2,
				4,
				3
			],
			"name":"\u30a2\u30fc\u30de\u30c1\u30e5\u30a2",
			"rotation":[
				-0.009920405223965645,
				0,
				0,
				0.9999508857727051
			],
			"translation":[
				0,
				0.14437448978424072,
				0
			]
		},
		{
			"name":"\u30dc\u30fc\u30f31",
			"rotation":[
				-0.7071067690849304,
				0,
				0,
				0.7071067690849304
			]
		},
		{
			"mesh":2,
			"name":"\u7acb\u65b9\u4f53.030",
			"skin":2
		},
		{
			"children":[
				5,
				7,
				6
			],
			"name":"\u30a2\u30fc\u30de\u30c1\u30e5\u30a2.001",
			"translation":[
				0,
				1.0895029306411743,
				1.0856518745422363
			]
		}
	],
	"animations":[
		{
			"channels":[
				{
					"sampler":0,
					"target":{
						"node":6,
						"path":"translation"
					}
				},
				{
					"sampler":1,
					"target":{
						"node":6,
						"path":"rotation"
					}
				},
				{
					"sampler":2,
					"target":{
						"node":6,
						"path":"scale"
					}
				},
				{
					"sampler":3,
					"target":{
						"node":8,
						"path":"translation"
					}
				},
				{
					"sampler":4,
					"target":{
						"node":8,
						"path":"rotation"
					}
				},
				{
					"sampler":5,
					"target":{
						"node":8,
						"path":"scale"
					}
				}
			],
			"name":"\u30a2\u30fc\u30de\u30c1\u30e5\u30a2.001Action",
			"samplers":[
				{
					"input":21,
					"interpolation":"STEP",
					"output":22
				},
				{
					"input":21,
					"interpolation":"STEP",
					"output":23
				},
				{
					"input":21,
					"interpolation":"STEP",
					"output":24
				},
				{
					"input":21,
					"interpolation":"STEP",
					"output":25
				},
				{
					"input":26,
					"interpolation":"LINEAR",
					"output":27
				},
				{
					"input":21,
					"interpolation":"STEP",
					"output":28
				}
			]
		},
		{
			"channels":[
				{
					"sampler":0,
					"target":{
						"node":3,
						"path":"translation"
					}
				},
				{
					"sampler":1,
					"target":{
						"node":3,
						"path":"rotation"
					}
				},
				{
					"sampler":2,
					"target":{
						"node":3,
						"path":"scale"
					}
				},
				{
					"sampler":3,
					"target":{
						"node":5,
						"path":"translation"
					}
				},
				{
					"sampler":4,
					"target":{
						"node":5,
						"path":"rotation"
					}
				},
				{
					"sampler":5,
					"target":{
						"node":5,
						"path":"scale"
					}
				}
			],
			"name":"\u30a2\u30fc\u30de\u30c1\u30e5\u30a2Action",
			"samplers":[
				{
					"input":29,
					"interpolation":"STEP",
					"output":30
				},
				{
					"input":29,
					"interpolation":"STEP",
					"output":31
				},
				{
					"input":29,
					"interpolation":"STEP",
					"output":32
				},
				{
					"input":29,
					"interpolation":"LINEAR",
					"output":33
				},
				{
					"input":29,
					"interpolation":"LINEAR",
					"output":34
				},
				{
					"input":29,
					"interpolation":"LINEAR",
					"output":35
				}
			]
		},
		{
			"channels":[
				{
					"sampler":0,
					"target":{
						"node":0,
						"path":"translation"
					}
				},
				{
					"sampler":1,
					"target":{
						"node":0,
						"path":"rotation"
					}
				},
				{
					"sampler":2,
					"target":{
						"node":0,
						"path":"scale"
					}
				},
				{
					"sampler":3,
					"target":{
						"node":2,
						"path":"translation"
					}
				},
				{
					"sampler":4,
					"target":{
						"node":2,
						"path":"rotation"
					}
				},
				{
					"sampler":5,
					"target":{
						"node":2,
						"path":"scale"
					}
				}
			],
			"name":"\u30a2\u30fc\u30de\u30c1\u30e5\u30a2.002Action",
			"samplers":[
				{
					"input":36,
					"interpolation":"STEP",
					"output":37
				},
				{
					"input":36,
					"interpolation":"STEP",
					"output":38
				},
				{
					"input":36,
					"interpolation":"STEP",
					"output":39
				},
				{
					"input":36,
					"interpolation":"STEP",
					"output":40
				},
				{
					"input":41,
					"interpolation":"LINEAR",
					"output":42
				},
				{
					"input":36,
					"interpolation":"STEP",
					"output":43
				}
			]
		}
	],
	"materials":[
		{
			"doubleSided":true,
			"name":"\u30de\u30c6\u30ea\u30a2\u30eb",
			"pbrMetallicRoughness":{
				"baseColorTexture":{
					"index":0
				},
				"metallicFactor":0.4235289990901947,
				"roughnessFactor":0.6000000238418579
			}
		}
	],
	"meshes":[
		{
			"name":"\u7403",
			"primitives":[
				{
					"attributes":{
						"POSITION":0,
						"NORMAL":1,
						"TEXCOORD_0":2,
						"JOINTS_0":3,
						"WEIGHTS_0":4
					},
					"indices":5,
					"material":0
				}
			]
		},
		{
			"name":"\u5186\u9310.001",
			"primitives":[
				{
					"attributes":{
						"POSITION":7,
						"NORMAL":8,
						"TEXCOORD_0":9,
						"JOINTS_0":10,
						"WEIGHTS_0":11
					},
					"indices":12,
					"material":0
				}
			]
		},
		{
			"name":"\u7acb\u65b9\u4f53.079",
			"primitives":[
				{
					"attributes":{
						"POSITION":14,
						"NORMAL":15,
						"TEXCOORD_0":16,
						"JOINTS_0":17,
						"WEIGHTS_0":18
					},
					"indices":19,
					"material":0
				}
			]
		}
	],
	"textures":[
		{
			"sampler":0,
			"source":0
		}
	],
	"images":[
		{
			"mimeType":"image/png",
			"name":"enemy",
			"uri":"enemy.png"
		}
	],
	"skins":[
		{
			"inverseBindMatrices":6,
			"joints":[
				0
			],
			"name":"\u30a2\u30fc\u30de\u30c1\u30e5\u30a2.002"
		},
		{
			"inverseBindMatrices":13,
			"joints":[
				3
			],
			"name":"\u30a2\u30fc\u30de\u30c1\u30e5\u30a2"
		},
		{
			"inverseBindMatrices":20,
			"joints":[
				6
			],
			"name":"\u30a2\u30fc\u30de\u30c1\u30e5\u30a2.001"
		}
	],
	"accessors":[
		{
			"bufferView":0,
			"componentType":5126,
			"count":245,
			"max":[
				0.30000779032707214,
				1.959234595298767,
				-0.5295818448066711
			],
			"min":[
				-0.30000779032707214,
				1.3611890077590942,
				-1.1246739625930786
			],
			"type":"VEC3"
		},
		{
			"bufferView":1,
			"componentType":5126,
			"count":245,
			"type":"VEC3"
		},
		{
			"bufferView":2,
			"componentType":5126,
			"count":245,
			"type":"VEC2"
		},
		{
			"bufferView":3,
			"componentType":5121,
			"count":245,
			"type":"VEC4"
		},
		{
			"bufferView":4,
			"componentType":5126,
			"count":245,
			"type":"VEC4"
		},
		{
			"bufferView":5,
			"componentType":5123,
			"count":1188,
			"type":"SCALAR"
		},
		{
			"bufferView":6,
			"componentType":5126,
			"count":1,
			"type":"MAT4"
		},
		{
			"bufferView":7,
			"componentType":5126,
			"count":10728,
			"max":[
				1.2106432914733887,
				2.2549023628234863,
				1.0685679912567139
			],
			"min":[
				-1.2106432914733887,
				0.6691818833351135,
				-1.114534854888916
			],
			"type":"VEC3"
		},
		{
			"bufferView":8,
			"componentType":5126,
			"count":10728,
			"type":"VEC3"
		},
		{
			"bufferView":9,
			"componentType":5126,
			"count":10728,
			"type":"VEC2"
		},
		{
			"bufferView":10,
			"componentType":5121,
			"count":10728,
			"type":"VEC4"
		},
		{
			"bufferView":11,
			"componentType":5126,
			"count":10728,
			"type":"VEC4"
		},
		{
			"bufferView":12,
			"componentType":5123,
			"count":52920,
			"type":"SCALAR"
		},
		{
			"bufferView":13,
			"componentType":5126,
			"count":1,
			"type":"MAT4"
		},
		{
			"bufferView":14,
			"componentType":5126,
			"count":10107,
			"max":[
				1.1459674835205078,
				1.7973225116729736,
				1.0839645862579346
			],
			"min":[
				-1.1459674835205078,
				0.05998191237449646,
				-1.0467535257339478
			],
			"type":"VEC3"
		},
		{
			"bufferView":15,
			"componentType":5126,
			"count":10107,
			"type":"VEC3"
		},
		{
			"bufferView":16,
			"componentType":5126,
			"count":10107,
			"type":"VEC2"
		},
		{
			"bufferView":17,
			"componentType":5121,
			"count":10107,
			"type":"VEC4"
		},
		{
			"bufferView":18,
			"componentType":5126,
			"count":10107,
			"type":"VEC4"
		},
		{
			"bufferView":19,
			"componentType":5123,
			"count":50196,
			"type":"SCALAR"
		},
		{
			"bufferView":20,
			"componentType":5126,
			"count":1,
			"type":"MAT4"
		},
		{
			"bufferView":21,
			"componentType":5126,
			"count":2,
			"max":[
				6.333333333333333
			],
			"min":[
				0
			],
			"type":"SCALAR"
		},
		{
			"bufferView":22,
			"componentType":5126,
			"count":2,
			"type":"VEC3"
		},
		{
			"bufferView":23,
			"componentType":5126,
			"count":2,
			"type":"VEC4"
		},
		{
			"bufferView":24,
			"componentType":5126,
			"count":2,
			"type":"VEC3"
		},
		{
			"bufferView":25,
			"componentType":5126,
			"count":2,
			"type":"VEC3"
		},
		{
			"bufferView":26,
			"componentType":5126,
			"count":381,
			"max":[
				6.333333333333333
			],
			"min":[
				0
			],
			"type":"SCALAR"
		},
		{
			"bufferView":27,
			"componentType":5126,
			"count":381,
			"type":"VEC4"
		},
		{
			"bufferView":28,
			"componentType":5126,
			"count":2,
			"type":"VEC3"
		},
		{
			"bufferView":29,
			"componentType":5126,
			"count":1,
			"max":[
				0
			],
			"min":[
				0
			],
			"type":"SCALAR"
		},
		{
			"bufferView":30,
			"componentType":5126,
			"count":1,
			"type":"VEC3"
		},
		{
			"bufferView":31,
			"componentType":5126,
			"count":1,
			"type":"VEC4"
		},
		{
			"bufferView":32,
			"componentType":5126,
			"count":1,
			"type":"VEC3"
		},
		{
			"bufferView":33,
			"componentType":5126,
			"count":1,
			"type":"VEC3"
		},
		{
			"bufferView":34,
			"componentType":5126,
			"count":1,
			"type":"VEC4"
		},
		{
			"bufferView":35,
			"componentType":5126,
			"count":1,
			"type":"VEC3"
		},
		{
			"bufferView":36,
			"componentType":5126,
			"count":2,
			"max":[
				7.333333333333333
			],
			"min":[
				0
			],
			"type":"SCALAR"
		},
		{
			"bufferView":37,
			"componentType":5126,
			"count":2,
			"type":"VEC3"
		},
		{
			"bufferView":38,
			"componentType":5126,
			"count":2,
			"type":"VEC4"
		},
		{
			"bufferView":39,
			"componentType":5126,
			"count":2,
			"type":"VEC3"
		},
		{
			"bufferView":40,
			"componentType":5126,
			"count":2,
			"type":"VEC3"
		},
		{
			"bufferView":41,
			"componentType":5126,
			"count":441,
			"max":[
				7.333333333333333
			],
			"min":[
				0
			],
			"type":"SCALAR"
		},
		{
			"bufferView":42,
			"componentType":5126,
			"count":441,
			"type":"VEC4"
		},
		{
			"bufferView":43,
			"componentType":5126,
			"count":2,
			"type":"VEC3"
		}
	],
	"bufferViews":[
		{
			"buffer":0,
			"byteLength":2940,
			"byteOffset":0,
			"target":34962
		},
		{
			"buffer":0,
			"byteLength":2940,
			"byteOffset":2940,
			"target":34962
		},
		{
			"buffer":0,
			"byteLength":1960,
			"byteOffset":5880,
			"target":34962
		},
		{
			"buffer":0,
			"byteLength":980,
			"byteOffset":7840,
			"target":34962
		},
		{
			"buffer":0,
			"byteLength":3920,
			"byteOffset":8820,
			"target":34962
		},
		{
			"buffer":0,
			"byteLength":2376,
			"byteOffset":12740,
			"target":34963
		},
		{
			"buffer":0,
			"byteLength":64,
			"byteOffset":15116
		},
		{
			"buffer":0,
			"byteLength":128736,
			"byteOffset":15180,
			"target":34962
		},
		{
			"buffer":0,
			"byteLength":128736,
			"byteOffset":143916,
			"target":34962
		},
		{
			"buffer":0,
			"byteLength":85824,
			"byteOffset":272652,
			"target":34962
		},
		{
			"buffer":0,
			"byteLength":42912,
			"byteOffset":358476,
			"target":34962
		},
		{
			"buffer":0,
			"byteLength":171648,
			"byteOffset":401388,
			"target":34962
		},
		{
			"buffer":0,
			"byteLength":105840,
			"byteOffset":573036,
			"target":34963
		},
		{
			"buffer":0,
			"byteLength":64,
			"byteOffset":678876
		},
		{
			"buffer":0,
			"byteLength":121284,
			"byteOffset":678940,
			"target":34962
		},
		{
			"buffer":0,
			"byteLength":121284,
			"byteOffset":800224,
			"target":34962
		},
		{
			"buffer":0,
			"byteLength":80856,
			"byteOffset":921508,
			"target":34962
		},
		{
			"buffer":0,
			"byteLength":40428,
			"byteOffset":1002364,
			"target":34962
		},
		{
			"buffer":0,
			"byteLength":161712,
			"byteOffset":1042792,
			"target":34962
		},
		{
			"buffer":0,
			"byteLength":100392,
			"byteOffset":1204504,
			"target":34963
		},
		{
			"buffer":0,
			"byteLength":64,
			"byteOffset":1304896
		},
		{
			"buffer":0,
			"byteLength":8,
			"byteOffset":1304960
		},
		{
			"buffer":0,
			"byteLength":24,
			"byteOffset":1304968
		},
		{
			"buffer":0,
			"byteLength":32,
			"byteOffset":1304992
		},
		{
			"buffer":0,
			"byteLength":24,
			"byteOffset":1305024
		},
		{
			"buffer":0,
			"byteLength":24,
			"byteOffset":1305048
		},
		{
			"buffer":0,
			"byteLength":1524,
			"byteOffset":1305072
		},
		{
			"buffer":0,
			"byteLength":6096,
			"byteOffset":1306596
		},
		{
			"buffer":0,
			"byteLength":24,
			"byteOffset":1312692
		},
		{
			"buffer":0,
			"byteLength":4,
			"byteOffset":1312716
		},
		{
			"buffer":0,
			"byteLength":12,
			"byteOffset":1312720
		},
		{
			"buffer":0,
			"byteLength":16,
			"byteOffset":1312732
		},
		{
			"buffer":0,
			"byteLength":12,
			"byteOffset":1312748
		},
		{
			"buffer":0,
			"byteLength":12,
			"byteOffset":1312760
		},
		{
			"buffer":0,
			"byteLength":16,
			"byteOffset":1312772
		},
		{
			"buffer":0,
			"byteLength":12,
			"byteOffset":1312788
		},
		{
			"buffer":0,
			"byteLength":8,
			"byteOffset":1312800
		},
		{
			"buffer":0,
			"byteLength":24,
			"byteOffset":1312808
		},
		{
			"buffer":0,
			"byteLength":32,
			"byteOffset":1312832
		},
		{
			"buffer":0,
			"byteLength":24,
			"byteOffset":1312864
		},
		{
			"buffer":0,
			"byteLength":24,
			"byteOffset":1312888
		},
		{
			"buffer":0,
			"byteLength":1764,
			"byteOffset":1312912
		},
		{
			"buffer":0,
			"byteLength":7056,
			"byteOffset":1314676
		},
		{
			"buffer":0,
			"byteLength":24,
			"byteOffset":1321732
		}
	],
	"samplers":[
		{
			"magFilter":9729,
			"minFilter":9987
		}
	],
	"buffers":[
		{
			"byteLength":1321756,
			"uri":"enemy_title.bin"
		}
	]
}
