{
	"asset":{
		"generator":"Khronos glTF Blender I/O v4.1.63",
		"version":"2.0"
	},
	"scene":0,
	"scenes":[
		{
			"name":"Scene",
			"nodes":[
				2
			]
		}
	],
	"nodes":[
		{
			"name":"\u30dc\u30fc\u30f3"
		},
		{
			"mesh":0,
			"name":"Cube.001",
			"skin":0
		},
		{
			"children":[
				1,
				0
			],
			"name":"\u30a2\u30fc\u30de\u30c1\u30e5\u30a2"
		}
	],
	"animations":[
		{
			"channels":[
				{
					"sampler":0,
					"target":{
						"node":1,
						"path":"weights"
					}
				}
			],
			"name":"KeyAction",
			"samplers":[
				{
					"input":17,
					"interpolation":"LINEAR",
					"output":18
				}
			]
		}
	],
	"materials":[
		{
			"doubleSided":true,
			"name":"Material.001",
			"pbrMetallicRoughness":{
				"baseColorTexture":{
					"index":0
				},
				"metallicFactor":0,
				"roughnessFactor":0.5
			}
		},
		{
			"doubleSided":true,
			"name":"\u30de\u30c6\u30ea\u30a2\u30eb",
			"pbrMetallicRoughness":{
				"baseColorFactor":[
					0.800000011920929,
					0.800000011920929,
					0.800000011920929,
					1
				],
				"metallicFactor":0,
				"roughnessFactor":0.5
			}
		}
	],
	"meshes":[
		{
			"extras":{
				"targetNames":[
					"\u30ad\u30fc 1"
				]
			},
			"name":"Cube.001",
			"primitives":[
				{
					"attributes":{
						"POSITION":0,
						"NORMAL":1,
						"TEXCOORD_0":2,
						"JOINTS_0":3,
						"WEIGHTS_0":4
					},
					"indices":5,
					"material":0,
					"targets":[
						{
							"POSITION":6,
							"NORMAL":7
						}
					]
				},
				{
					"attributes":{
						"POSITION":8,
						"NORMAL":9,
						"TEXCOORD_0":10,
						"JOINTS_0":11,
						"WEIGHTS_0":12
					},
					"indices":13,
					"material":1,
					"targets":[
						{
							"POSITION":14,
							"NORMAL":15
						}
					]
				}
			],
			"weights":[
				0
			]
		}
	],
	"textures":[
		{
			"sampler":0,
			"source":0
		}
	],
	"images":[
		{
			"mimeType":"image/png",
			"name":"playerUV",
			"uri":"playerUV.png"
		}
	],
	"skins":[
		{
			"inverseBindMatrices":16,
			"joints":[
				0
			],
			"name":"\u30a2\u30fc\u30de\u30c1\u30e5\u30a2"
		}
	],
	"accessors":[
		{
			"bufferView":0,
			"componentType":5126,
			"count":441,
			"max":[
				0.719389021396637,
				1.151381015777588,
				0.7193889617919922
			],
			"min":[
				-0.719389021396637,
				0.010329999960958958,
				-0.7193890810012817
			],
			"type":"VEC3"
		},
		{
			"bufferView":1,
			"componentType":5126,
			"count":441,
			"type":"VEC3"
		},
		{
			"bufferView":2,
			"componentType":5126,
			"count":441,
			"type":"VEC2"
		},
		{
			"bufferView":3,
			"componentType":5121,
			"count":441,
			"type":"VEC4"
		},
		{
			"bufferView":4,
			"componentType":5126,
			"count":441,
			"type":"VEC4"
		},
		{
			"bufferView":5,
			"componentType":5123,
			"count":2304,
			"type":"SCALAR"
		},
		{
			"componentType":5126,
			"count":441,
			"max":[
				0,
				0.20655369758605957,
				0.09255272150039673
			],
			"min":[
				-0.02477957494556904,
				0,
				0
			],
			"sparse":{
				"count":1,
				"indices":{
					"bufferView":6,
					"componentType":5121
				},
				"values":{
					"bufferView":7
				}
			},
			"type":"VEC3"
		},
		{
			"componentType":5126,
			"count":441,
			"sparse":{
				"count":166,
				"indices":{
					"bufferView":8,
					"componentType":5123
				},
				"values":{
					"bufferView":9
				}
			},
			"type":"VEC3"
		},
		{
			"bufferView":10,
			"componentType":5126,
			"count":196,
			"max":[
				0.26587599515914917,
				0.8103609681129456,
				-0.584083080291748
			],
			"min":[
				-0.26587599515914917,
				0.6251779198646545,
				-0.7155300378799438
			],
			"type":"VEC3"
		},
		{
			"bufferView":11,
			"componentType":5126,
			"count":196,
			"type":"VEC3"
		},
		{
			"bufferView":12,
			"componentType":5126,
			"count":196,
			"type":"VEC2"
		},
		{
			"bufferView":13,
			"componentType":5121,
			"count":196,
			"type":"VEC4"
		},
		{
			"bufferView":14,
			"componentType":5126,
			"count":196,
			"type":"VEC4"
		},
		{
			"bufferView":15,
			"componentType":5123,
			"count":1152,
			"type":"SCALAR"
		},
		{
			"componentType":5126,
			"count":196,
			"max":[
				0,
				0,
				0
			],
			"min":[
				0,
				0,
				0
			],
			"sparse":{
				"count":1,
				"indices":{
					"bufferView":16,
					"componentType":5121
				},
				"values":{
					"bufferView":17
				}
			},
			"type":"VEC3"
		},
		{
			"componentType":5126,
			"count":196,
			"sparse":{
				"count":70,
				"indices":{
					"bufferView":18,
					"componentType":5121
				},
				"values":{
					"bufferView":19
				}
			},
			"type":"VEC3"
		},
		{
			"bufferView":20,
			"componentType":5126,
			"count":1,
			"type":"MAT4"
		},
		{
			"bufferView":21,
			"componentType":5126,
			"count":41,
			"max":[
				0.6666666666666666
			],
			"min":[
				0
			],
			"type":"SCALAR"
		},
		{
			"bufferView":22,
			"componentType":5126,
			"count":41,
			"type":"SCALAR"
		}
	],
	"bufferViews":[
		{
			"buffer":0,
			"byteLength":5292,
			"byteOffset":0,
			"target":34962
		},
		{
			"buffer":0,
			"byteLength":5292,
			"byteOffset":5292,
			"target":34962
		},
		{
			"buffer":0,
			"byteLength":3528,
			"byteOffset":10584,
			"target":34962
		},
		{
			"buffer":0,
			"byteLength":1764,
			"byteOffset":14112,
			"target":34962
		},
		{
			"buffer":0,
			"byteLength":7056,
			"byteOffset":15876,
			"target":34962
		},
		{
			"buffer":0,
			"byteLength":4608,
			"byteOffset":22932,
			"target":34963
		},
		{
			"buffer":0,
			"byteLength":1,
			"byteOffset":27540
		},
		{
			"buffer":0,
			"byteLength":12,
			"byteOffset":27544
		},
		{
			"buffer":0,
			"byteLength":332,
			"byteOffset":27556
		},
		{
			"buffer":0,
			"byteLength":1992,
			"byteOffset":27888
		},
		{
			"buffer":0,
			"byteLength":2352,
			"byteOffset":29880,
			"target":34962
		},
		{
			"buffer":0,
			"byteLength":2352,
			"byteOffset":32232,
			"target":34962
		},
		{
			"buffer":0,
			"byteLength":1568,
			"byteOffset":34584,
			"target":34962
		},
		{
			"buffer":0,
			"byteLength":784,
			"byteOffset":36152,
			"target":34962
		},
		{
			"buffer":0,
			"byteLength":3136,
			"byteOffset":36936,
			"target":34962
		},
		{
			"buffer":0,
			"byteLength":2304,
			"byteOffset":40072,
			"target":34963
		},
		{
			"buffer":0,
			"byteLength":1,
			"byteOffset":42376
		},
		{
			"buffer":0,
			"byteLength":12,
			"byteOffset":42380
		},
		{
			"buffer":0,
			"byteLength":70,
			"byteOffset":42392
		},
		{
			"buffer":0,
			"byteLength":840,
			"byteOffset":42464
		},
		{
			"buffer":0,
			"byteLength":64,
			"byteOffset":43304
		},
		{
			"buffer":0,
			"byteLength":164,
			"byteOffset":43368
		},
		{
			"buffer":0,
			"byteLength":164,
			"byteOffset":43532
		}
	],
	"samplers":[
		{
			"magFilter":9729,
			"minFilter":9987
		}
	],
	"buffers":[
		{
			"byteLength":43696,
			"uri":"player_spike_test.bin"
		}
	]
}
