{
	"asset":{
		"generator":"Khronos glTF Blender I/O v4.1.63",
		"version":"2.0"
	},
	"scene":0,
	"scenes":[
		{
			"name":"Scene",
			"nodes":[
				2,
				3
			]
		}
	],
	"nodes":[
		{
			"name":"main",
			"translation":[
				0,
				-0.5,
				0
			]
		},
		{
			"mesh":0,
			"name":"Cube",
			"skin":0
		},
		{
			"children":[
				1,
				0
			],
			"name":"\u30a2\u30fc\u30de\u30c1\u30e5\u30a2"
		},
		{
			"mesh":1,
			"name":"\u7acb\u65b9\u4f53",
			"scale":[
				0.09392374753952026,
				0.09392374753952026,
				0.09392374753952026
			],
			"translation":[
				0,
				2.4468352794647217,
				0
			]
		}
	],
	"animations":[
		{
			"channels":[
				{
					"sampler":0,
					"target":{
						"node":0,
						"path":"translation"
					}
				},
				{
					"sampler":1,
					"target":{
						"node":0,
						"path":"rotation"
					}
				},
				{
					"sampler":2,
					"target":{
						"node":0,
						"path":"scale"
					}
				}
			],
			"name":"\u30a2\u30fc\u30de\u30c1\u30e5\u30a2Action",
			"samplers":[
				{
					"input":19,
					"interpolation":"STEP",
					"output":20
				},
				{
					"input":19,
					"interpolation":"STEP",
					"output":21
				},
				{
					"input":22,
					"interpolation":"LINEAR",
					"output":23
				}
			]
		}
	],
	"materials":[
		{
			"doubleSided":true,
			"name":"Material.001",
			"pbrMetallicRoughness":{
				"baseColorTexture":{
					"index":0
				},
				"metallicFactor":0,
				"roughnessFactor":0.5
			}
		},
		{
			"doubleSided":true,
			"name":"\u30de\u30c6\u30ea\u30a2\u30eb",
			"pbrMetallicRoughness":{
				"baseColorTexture":{
					"index":1
				},
				"metallicFactor":0,
				"roughnessFactor":0.5
			}
		}
	],
	"meshes":[
		{
			"name":"Cube.001",
			"primitives":[
				{
					"attributes":{
						"POSITION":0,
						"NORMAL":1,
						"TEXCOORD_0":2,
						"TEXCOORD_1":3,
						"JOINTS_0":4,
						"WEIGHTS_0":5
					},
					"indices":6,
					"material":0
				},
				{
					"attributes":{
						"POSITION":7,
						"NORMAL":8,
						"TEXCOORD_0":9,
						"TEXCOORD_1":10,
						"JOINTS_0":11,
						"WEIGHTS_0":12
					},
					"indices":13,
					"material":1
				}
			]
		},
		{
			"name":"\u7acb\u65b9\u4f53",
			"primitives":[
				{
					"attributes":{
						"POSITION":15,
						"NORMAL":16,
						"TEXCOORD_0":17
					},
					"indices":18
				}
			]
		}
	],
	"textures":[
		{
			"sampler":0,
			"source":0
		},
		{
			"sampler":0,
			"source":1
		}
	],
	"images":[
		{
			"mimeType":"image/png",
			"name":"playerUV",
			"uri":"playerUV.png"
		},
		{
			"mimeType":"image/png",
			"name":"player",
			"uri":"player.png"
		}
	],
	"skins":[
		{
			"inverseBindMatrices":14,
			"joints":[
				0
			],
			"name":"\u30a2\u30fc\u30de\u30c1\u30e5\u30a2"
		}
	],
	"accessors":[
		{
			"bufferView":0,
			"componentType":5126,
			"count":441,
			"max":[
				0.719389021396637,
				0.625758171081543,
				0.719389021396637
			],
			"min":[
				-0.719389021396637,
				-0.515292763710022,
				-0.719389021396637
			],
			"type":"VEC3"
		},
		{
			"bufferView":1,
			"componentType":5126,
			"count":441,
			"type":"VEC3"
		},
		{
			"bufferView":2,
			"componentType":5126,
			"count":441,
			"type":"VEC2"
		},
		{
			"bufferView":3,
			"componentType":5126,
			"count":441,
			"type":"VEC2"
		},
		{
			"bufferView":4,
			"componentType":5121,
			"count":441,
			"type":"VEC4"
		},
		{
			"bufferView":5,
			"componentType":5126,
			"count":441,
			"type":"VEC4"
		},
		{
			"bufferView":6,
			"componentType":5123,
			"count":2304,
			"type":"SCALAR"
		},
		{
			"bufferView":7,
			"componentType":5126,
			"count":250,
			"max":[
				0.265875905752182,
				0.28473812341690063,
				-0.5840833187103271
			],
			"min":[
				-0.2658759355545044,
				0.09955543279647827,
				-0.7155301570892334
			],
			"type":"VEC3"
		},
		{
			"bufferView":8,
			"componentType":5126,
			"count":250,
			"type":"VEC3"
		},
		{
			"bufferView":9,
			"componentType":5126,
			"count":250,
			"type":"VEC2"
		},
		{
			"bufferView":10,
			"componentType":5126,
			"count":250,
			"type":"VEC2"
		},
		{
			"bufferView":11,
			"componentType":5121,
			"count":250,
			"type":"VEC4"
		},
		{
			"bufferView":12,
			"componentType":5126,
			"count":250,
			"type":"VEC4"
		},
		{
			"bufferView":13,
			"componentType":5123,
			"count":1152,
			"type":"SCALAR"
		},
		{
			"bufferView":14,
			"componentType":5126,
			"count":1,
			"type":"MAT4"
		},
		{
			"bufferView":15,
			"componentType":5126,
			"count":24,
			"max":[
				1,
				1,
				1
			],
			"min":[
				-1,
				-1,
				-1
			],
			"type":"VEC3"
		},
		{
			"bufferView":16,
			"componentType":5126,
			"count":24,
			"type":"VEC3"
		},
		{
			"bufferView":17,
			"componentType":5126,
			"count":24,
			"type":"VEC2"
		},
		{
			"bufferView":18,
			"componentType":5123,
			"count":36,
			"type":"SCALAR"
		},
		{
			"bufferView":19,
			"componentType":5126,
			"count":2,
			"max":[
				0.4166666666666667
			],
			"min":[
				0
			],
			"type":"SCALAR"
		},
		{
			"bufferView":20,
			"componentType":5126,
			"count":2,
			"type":"VEC3"
		},
		{
			"bufferView":21,
			"componentType":5126,
			"count":2,
			"type":"VEC4"
		},
		{
			"bufferView":22,
			"componentType":5126,
			"count":26,
			"max":[
				0.4166666666666667
			],
			"min":[
				0
			],
			"type":"SCALAR"
		},
		{
			"bufferView":23,
			"componentType":5126,
			"count":26,
			"type":"VEC3"
		}
	],
	"bufferViews":[
		{
			"buffer":0,
			"byteLength":5292,
			"byteOffset":0,
			"target":34962
		},
		{
			"buffer":0,
			"byteLength":5292,
			"byteOffset":5292,
			"target":34962
		},
		{
			"buffer":0,
			"byteLength":3528,
			"byteOffset":10584,
			"target":34962
		},
		{
			"buffer":0,
			"byteLength":3528,
			"byteOffset":14112,
			"target":34962
		},
		{
			"buffer":0,
			"byteLength":1764,
			"byteOffset":17640,
			"target":34962
		},
		{
			"buffer":0,
			"byteLength":7056,
			"byteOffset":19404,
			"target":34962
		},
		{
			"buffer":0,
			"byteLength":4608,
			"byteOffset":26460,
			"target":34963
		},
		{
			"buffer":0,
			"byteLength":3000,
			"byteOffset":31068,
			"target":34962
		},
		{
			"buffer":0,
			"byteLength":3000,
			"byteOffset":34068,
			"target":34962
		},
		{
			"buffer":0,
			"byteLength":2000,
			"byteOffset":37068,
			"target":34962
		},
		{
			"buffer":0,
			"byteLength":2000,
			"byteOffset":39068,
			"target":34962
		},
		{
			"buffer":0,
			"byteLength":1000,
			"byteOffset":41068,
			"target":34962
		},
		{
			"buffer":0,
			"byteLength":4000,
			"byteOffset":42068,
			"target":34962
		},
		{
			"buffer":0,
			"byteLength":2304,
			"byteOffset":46068,
			"target":34963
		},
		{
			"buffer":0,
			"byteLength":64,
			"byteOffset":48372
		},
		{
			"buffer":0,
			"byteLength":288,
			"byteOffset":48436,
			"target":34962
		},
		{
			"buffer":0,
			"byteLength":288,
			"byteOffset":48724,
			"target":34962
		},
		{
			"buffer":0,
			"byteLength":192,
			"byteOffset":49012,
			"target":34962
		},
		{
			"buffer":0,
			"byteLength":72,
			"byteOffset":49204,
			"target":34963
		},
		{
			"buffer":0,
			"byteLength":8,
			"byteOffset":49276
		},
		{
			"buffer":0,
			"byteLength":24,
			"byteOffset":49284
		},
		{
			"buffer":0,
			"byteLength":32,
			"byteOffset":49308
		},
		{
			"buffer":0,
			"byteLength":104,
			"byteOffset":49340
		},
		{
			"buffer":0,
			"byteLength":312,
			"byteOffset":49444
		}
	],
	"samplers":[
		{
			"magFilter":9729,
			"minFilter":9987
		}
	],
	"buffers":[
		{
			"byteLength":49756,
			"uri":"player_knockBack.bin"
		}
	]
}
