{
	"asset":{
		"generator":"Khronos glTF Blender I/O v4.1.63",
		"version":"2.0"
	},
	"scene":0,
	"scenes":[
		{
			"name":"Scene",
			"nodes":[
				3,
				4
			]
		}
	],
	"nodes":[
		{
			"name":"main",
			"translation":[
				0,
				-0.5,
				0
			]
		},
		{
			"mesh":0,
			"name":"Cube",
			"skin":0
		},
		{
			"mesh":1,
			"name":"\u7acb\u65b9\u4f53.001",
			"skin":0
		},
		{
			"children":[
				1,
				2,
				0
			],
			"name":"\u30a2\u30fc\u30de\u30c1\u30e5\u30a2"
		},
		{
			"mesh":2,
			"name":"\u7acb\u65b9\u4f53",
			"scale":[
				0.09392374753952026,
				0.09392374753952026,
				0.09392374753952026
			],
			"translation":[
				0,
				2.4468352794647217,
				0
			]
		}
	],
	"animations":[
		{
			"channels":[
				{
					"sampler":0,
					"target":{
						"node":0,
						"path":"translation"
					}
				},
				{
					"sampler":1,
					"target":{
						"node":0,
						"path":"rotation"
					}
				},
				{
					"sampler":2,
					"target":{
						"node":0,
						"path":"scale"
					}
				}
			],
			"name":"\u30a2\u30fc\u30de\u30c1\u30e5\u30a2Action",
			"samplers":[
				{
					"input":17,
					"interpolation":"LINEAR",
					"output":18
				},
				{
					"input":19,
					"interpolation":"STEP",
					"output":20
				},
				{
					"input":17,
					"interpolation":"LINEAR",
					"output":21
				}
			]
		}
	],
	"materials":[
		{
			"doubleSided":true,
			"name":"Material.001",
			"pbrMetallicRoughness":{
				"baseColorFactor":[
					0.800000011920929,
					0.800000011920929,
					0.800000011920929,
					1
				],
				"metallicFactor":0,
				"roughnessFactor":0.5
			}
		}
	],
	"meshes":[
		{
			"name":"Cube.001",
			"primitives":[
				{
					"attributes":{
						"POSITION":0,
						"NORMAL":1,
						"TEXCOORD_0":2,
						"JOINTS_0":3,
						"WEIGHTS_0":4
					},
					"indices":5,
					"material":0
				}
			]
		},
		{
			"name":"\u7acb\u65b9\u4f53.001",
			"primitives":[
				{
					"attributes":{
						"POSITION":7,
						"NORMAL":8,
						"TEXCOORD_0":9,
						"JOINTS_0":10,
						"WEIGHTS_0":11
					},
					"indices":12
				}
			]
		},
		{
			"name":"\u7acb\u65b9\u4f53",
			"primitives":[
				{
					"attributes":{
						"POSITION":13,
						"NORMAL":14,
						"TEXCOORD_0":15
					},
					"indices":16
				}
			]
		}
	],
	"skins":[
		{
			"inverseBindMatrices":6,
			"joints":[
				0
			],
			"name":"\u30a2\u30fc\u30de\u30c1\u30e5\u30a2"
		}
	],
	"accessors":[
		{
			"bufferView":0,
			"componentType":5126,
			"count":441,
			"max":[
				0.719389021396637,
				0.603706955909729,
				0.719389021396637
			],
			"min":[
				-0.719389021396637,
				-0.5373439788818359,
				-0.719389021396637
			],
			"type":"VEC3"
		},
		{
			"bufferView":1,
			"componentType":5126,
			"count":441,
			"type":"VEC3"
		},
		{
			"bufferView":2,
			"componentType":5126,
			"count":441,
			"type":"VEC2"
		},
		{
			"bufferView":3,
			"componentType":5121,
			"count":441,
			"type":"VEC4"
		},
		{
			"bufferView":4,
			"componentType":5126,
			"count":441,
			"type":"VEC4"
		},
		{
			"bufferView":5,
			"componentType":5123,
			"count":2304,
			"type":"SCALAR"
		},
		{
			"bufferView":6,
			"componentType":5126,
			"count":1,
			"type":"MAT4"
		},
		{
			"bufferView":7,
			"componentType":5126,
			"count":250,
			"max":[
				0.2658758759498596,
				0.28500744700431824,
				-0.5840833187103271
			],
			"min":[
				-0.2658758759498596,
				0.09982474148273468,
				-0.7155300974845886
			],
			"type":"VEC3"
		},
		{
			"bufferView":8,
			"componentType":5126,
			"count":250,
			"type":"VEC3"
		},
		{
			"bufferView":9,
			"componentType":5126,
			"count":250,
			"type":"VEC2"
		},
		{
			"bufferView":10,
			"componentType":5121,
			"count":250,
			"type":"VEC4"
		},
		{
			"bufferView":11,
			"componentType":5126,
			"count":250,
			"type":"VEC4"
		},
		{
			"bufferView":12,
			"componentType":5123,
			"count":1152,
			"type":"SCALAR"
		},
		{
			"bufferView":13,
			"componentType":5126,
			"count":24,
			"max":[
				1,
				1,
				1
			],
			"min":[
				-1,
				-1,
				-1
			],
			"type":"VEC3"
		},
		{
			"bufferView":14,
			"componentType":5126,
			"count":24,
			"type":"VEC3"
		},
		{
			"bufferView":15,
			"componentType":5126,
			"count":24,
			"type":"VEC2"
		},
		{
			"bufferView":16,
			"componentType":5123,
			"count":36,
			"type":"SCALAR"
		},
		{
			"bufferView":17,
			"componentType":5126,
			"count":41,
			"max":[
				0.6666666666666666
			],
			"min":[
				0
			],
			"type":"SCALAR"
		},
		{
			"bufferView":18,
			"componentType":5126,
			"count":41,
			"type":"VEC3"
		},
		{
			"bufferView":19,
			"componentType":5126,
			"count":2,
			"max":[
				0.6666666666666666
			],
			"min":[
				0
			],
			"type":"SCALAR"
		},
		{
			"bufferView":20,
			"componentType":5126,
			"count":2,
			"type":"VEC4"
		},
		{
			"bufferView":21,
			"componentType":5126,
			"count":41,
			"type":"VEC3"
		}
	],
	"bufferViews":[
		{
			"buffer":0,
			"byteLength":5292,
			"byteOffset":0,
			"target":34962
		},
		{
			"buffer":0,
			"byteLength":5292,
			"byteOffset":5292,
			"target":34962
		},
		{
			"buffer":0,
			"byteLength":3528,
			"byteOffset":10584,
			"target":34962
		},
		{
			"buffer":0,
			"byteLength":1764,
			"byteOffset":14112,
			"target":34962
		},
		{
			"buffer":0,
			"byteLength":7056,
			"byteOffset":15876,
			"target":34962
		},
		{
			"buffer":0,
			"byteLength":4608,
			"byteOffset":22932,
			"target":34963
		},
		{
			"buffer":0,
			"byteLength":64,
			"byteOffset":27540
		},
		{
			"buffer":0,
			"byteLength":3000,
			"byteOffset":27604,
			"target":34962
		},
		{
			"buffer":0,
			"byteLength":3000,
			"byteOffset":30604,
			"target":34962
		},
		{
			"buffer":0,
			"byteLength":2000,
			"byteOffset":33604,
			"target":34962
		},
		{
			"buffer":0,
			"byteLength":1000,
			"byteOffset":35604,
			"target":34962
		},
		{
			"buffer":0,
			"byteLength":4000,
			"byteOffset":36604,
			"target":34962
		},
		{
			"buffer":0,
			"byteLength":2304,
			"byteOffset":40604,
			"target":34963
		},
		{
			"buffer":0,
			"byteLength":288,
			"byteOffset":42908,
			"target":34962
		},
		{
			"buffer":0,
			"byteLength":288,
			"byteOffset":43196,
			"target":34962
		},
		{
			"buffer":0,
			"byteLength":192,
			"byteOffset":43484,
			"target":34962
		},
		{
			"buffer":0,
			"byteLength":72,
			"byteOffset":43676,
			"target":34963
		},
		{
			"buffer":0,
			"byteLength":164,
			"byteOffset":43748
		},
		{
			"buffer":0,
			"byteLength":492,
			"byteOffset":43912
		},
		{
			"buffer":0,
			"byteLength":8,
			"byteOffset":44404
		},
		{
			"buffer":0,
			"byteLength":32,
			"byteOffset":44412
		},
		{
			"buffer":0,
			"byteLength":492,
			"byteOffset":44444
		}
	],
	"buffers":[
		{
			"byteLength":44936,
			"uri":"player_jump.bin"
		}
	]
}
