{
	"asset":{
		"generator":"Khronos glTF Blender I/O v4.1.63",
		"version":"2.0"
	},
	"scene":0,
	"scenes":[
		{
			"name":"Scene",
			"nodes":[
				2,
				16
			]
		}
	],
	"nodes":[
		{
			"name":"\u30dc\u30fc\u30f3"
		},
		{
			"mesh":0,
			"name":"Cube.001",
			"skin":0
		},
		{
			"children":[
				1,
				0
			],
			"name":"\u30a2\u30fc\u30de\u30c1\u30e5\u30a2"
		},
		{
			"name":"\u30dc\u30fc\u30f3"
		},
		{
			"name":"\u30dc\u30fc\u30f3.001",
			"translation":[
				1.293771505355835,
				0.05536913126707077,
				-0.09944489598274231
			]
		},
		{
			"name":"\u30dc\u30fc\u30f3.002",
			"translation":[
				2.4195668697357178,
				0.03664242476224899,
				-0.07701753079891205
			]
		},
		{
			"name":"\u30dc\u30fc\u30f3.003",
			"translation":[
				3.6617534160614014,
				0.03722861409187317,
				-0.049557819962501526
			]
		},
		{
			"name":"\u30dc\u30fc\u30f3.004",
			"translation":[
				5.020394325256348,
				0.03786975145339966,
				-0.019523760303854942
			]
		},
		{
			"name":"\u30dc\u30fc\u30f3.005",
			"translation":[
				6.3208723068237305,
				0.019225480034947395,
				0.006765127182006836
			]
		},
		{
			"name":"\u30dc\u30fc\u30f3.006",
			"translation":[
				0,
				0,
				-3.0162384510040283
			]
		},
		{
			"name":"\u30dc\u30fc\u30f3.007",
			"translation":[
				1.2310173511505127,
				0,
				-3.0162384510040283
			]
		},
		{
			"name":"\u30dc\u30fc\u30f3.008",
			"translation":[
				2.436594247817993,
				-0.16700731217861176,
				-3.020731210708618
			]
		},
		{
			"name":"\u30dc\u30fc\u30f3.009",
			"translation":[
				3.661301851272583,
				-0.16700731217861176,
				-3.020731210708618
			]
		},
		{
			"name":"\u30dc\u30fc\u30f3.010",
			"translation":[
				5.088356018066406,
				-0.16700731217861176,
				-3.020731210708618
			]
		},
		{
			"name":"\u30dc\u30fc\u30f3.011",
			"translation":[
				6.827447891235352,
				-0.16700731217861176,
				-3.020731210708618
			]
		},
		{
			"mesh":1,
			"name":"\u5186\u9310.010",
			"skin":1
		},
		{
			"children":[
				15,
				3,
				4,
				5,
				6,
				7,
				8,
				9,
				10,
				11,
				12,
				13,
				14
			],
			"name":"\u30a2\u30fc\u30de\u30c1\u30e5\u30a2.001",
			"scale":[
				0.5525296330451965,
				0.5525296330451965,
				0.5525296330451965
			],
			"translation":[
				1.5770522356033325,
				0,
				0
			]
		}
	],
	"animations":[
		{
			"channels":[
				{
					"sampler":0,
					"target":{
						"node":0,
						"path":"translation"
					}
				},
				{
					"sampler":1,
					"target":{
						"node":0,
						"path":"rotation"
					}
				},
				{
					"sampler":2,
					"target":{
						"node":0,
						"path":"scale"
					}
				}
			],
			"name":"\u30a2\u30fc\u30de\u30c1\u30e5\u30a2Action",
			"samplers":[
				{
					"input":20,
					"interpolation":"STEP",
					"output":21
				},
				{
					"input":20,
					"interpolation":"STEP",
					"output":22
				},
				{
					"input":23,
					"interpolation":"LINEAR",
					"output":24
				}
			]
		},
		{
			"channels":[
				{
					"sampler":0,
					"target":{
						"node":3,
						"path":"translation"
					}
				},
				{
					"sampler":1,
					"target":{
						"node":3,
						"path":"rotation"
					}
				},
				{
					"sampler":2,
					"target":{
						"node":3,
						"path":"scale"
					}
				},
				{
					"sampler":3,
					"target":{
						"node":4,
						"path":"translation"
					}
				},
				{
					"sampler":4,
					"target":{
						"node":4,
						"path":"rotation"
					}
				},
				{
					"sampler":5,
					"target":{
						"node":4,
						"path":"scale"
					}
				},
				{
					"sampler":6,
					"target":{
						"node":5,
						"path":"translation"
					}
				},
				{
					"sampler":7,
					"target":{
						"node":5,
						"path":"rotation"
					}
				},
				{
					"sampler":8,
					"target":{
						"node":5,
						"path":"scale"
					}
				},
				{
					"sampler":9,
					"target":{
						"node":6,
						"path":"translation"
					}
				},
				{
					"sampler":10,
					"target":{
						"node":6,
						"path":"rotation"
					}
				},
				{
					"sampler":11,
					"target":{
						"node":6,
						"path":"scale"
					}
				},
				{
					"sampler":12,
					"target":{
						"node":7,
						"path":"translation"
					}
				},
				{
					"sampler":13,
					"target":{
						"node":7,
						"path":"rotation"
					}
				},
				{
					"sampler":14,
					"target":{
						"node":7,
						"path":"scale"
					}
				},
				{
					"sampler":15,
					"target":{
						"node":8,
						"path":"translation"
					}
				},
				{
					"sampler":16,
					"target":{
						"node":8,
						"path":"rotation"
					}
				},
				{
					"sampler":17,
					"target":{
						"node":8,
						"path":"scale"
					}
				},
				{
					"sampler":18,
					"target":{
						"node":9,
						"path":"translation"
					}
				},
				{
					"sampler":19,
					"target":{
						"node":9,
						"path":"rotation"
					}
				},
				{
					"sampler":20,
					"target":{
						"node":9,
						"path":"scale"
					}
				},
				{
					"sampler":21,
					"target":{
						"node":10,
						"path":"translation"
					}
				},
				{
					"sampler":22,
					"target":{
						"node":10,
						"path":"rotation"
					}
				},
				{
					"sampler":23,
					"target":{
						"node":10,
						"path":"scale"
					}
				},
				{
					"sampler":24,
					"target":{
						"node":11,
						"path":"translation"
					}
				},
				{
					"sampler":25,
					"target":{
						"node":11,
						"path":"rotation"
					}
				},
				{
					"sampler":26,
					"target":{
						"node":11,
						"path":"scale"
					}
				},
				{
					"sampler":27,
					"target":{
						"node":12,
						"path":"translation"
					}
				},
				{
					"sampler":28,
					"target":{
						"node":12,
						"path":"rotation"
					}
				},
				{
					"sampler":29,
					"target":{
						"node":12,
						"path":"scale"
					}
				},
				{
					"sampler":30,
					"target":{
						"node":13,
						"path":"translation"
					}
				},
				{
					"sampler":31,
					"target":{
						"node":13,
						"path":"rotation"
					}
				},
				{
					"sampler":32,
					"target":{
						"node":13,
						"path":"scale"
					}
				},
				{
					"sampler":33,
					"target":{
						"node":14,
						"path":"translation"
					}
				},
				{
					"sampler":34,
					"target":{
						"node":14,
						"path":"rotation"
					}
				},
				{
					"sampler":35,
					"target":{
						"node":14,
						"path":"scale"
					}
				}
			],
			"name":"\u30a2\u30fc\u30de\u30c1\u30e5\u30a2.001Action",
			"samplers":[
				{
					"input":25,
					"interpolation":"STEP",
					"output":26
				},
				{
					"input":25,
					"interpolation":"STEP",
					"output":27
				},
				{
					"input":25,
					"interpolation":"STEP",
					"output":28
				},
				{
					"input":25,
					"interpolation":"STEP",
					"output":29
				},
				{
					"input":25,
					"interpolation":"STEP",
					"output":30
				},
				{
					"input":25,
					"interpolation":"STEP",
					"output":31
				},
				{
					"input":25,
					"interpolation":"STEP",
					"output":32
				},
				{
					"input":25,
					"interpolation":"STEP",
					"output":33
				},
				{
					"input":25,
					"interpolation":"STEP",
					"output":34
				},
				{
					"input":25,
					"interpolation":"STEP",
					"output":35
				},
				{
					"input":25,
					"interpolation":"STEP",
					"output":36
				},
				{
					"input":25,
					"interpolation":"STEP",
					"output":37
				},
				{
					"input":25,
					"interpolation":"STEP",
					"output":38
				},
				{
					"input":25,
					"interpolation":"STEP",
					"output":39
				},
				{
					"input":25,
					"interpolation":"STEP",
					"output":40
				},
				{
					"input":25,
					"interpolation":"STEP",
					"output":41
				},
				{
					"input":25,
					"interpolation":"STEP",
					"output":42
				},
				{
					"input":25,
					"interpolation":"STEP",
					"output":43
				},
				{
					"input":25,
					"interpolation":"STEP",
					"output":44
				},
				{
					"input":25,
					"interpolation":"STEP",
					"output":45
				},
				{
					"input":46,
					"interpolation":"LINEAR",
					"output":47
				},
				{
					"input":25,
					"interpolation":"STEP",
					"output":48
				},
				{
					"input":25,
					"interpolation":"STEP",
					"output":49
				},
				{
					"input":25,
					"interpolation":"STEP",
					"output":50
				},
				{
					"input":25,
					"interpolation":"STEP",
					"output":51
				},
				{
					"input":25,
					"interpolation":"STEP",
					"output":52
				},
				{
					"input":25,
					"interpolation":"STEP",
					"output":53
				},
				{
					"input":25,
					"interpolation":"STEP",
					"output":54
				},
				{
					"input":25,
					"interpolation":"STEP",
					"output":55
				},
				{
					"input":25,
					"interpolation":"STEP",
					"output":56
				},
				{
					"input":25,
					"interpolation":"STEP",
					"output":57
				},
				{
					"input":25,
					"interpolation":"STEP",
					"output":58
				},
				{
					"input":25,
					"interpolation":"STEP",
					"output":59
				},
				{
					"input":25,
					"interpolation":"STEP",
					"output":60
				},
				{
					"input":25,
					"interpolation":"STEP",
					"output":61
				},
				{
					"input":25,
					"interpolation":"STEP",
					"output":62
				}
			]
		}
	],
	"materials":[
		{
			"doubleSided":true,
			"name":"Material.001",
			"pbrMetallicRoughness":{
				"baseColorTexture":{
					"index":0
				},
				"metallicFactor":0,
				"roughnessFactor":0.5
			}
		},
		{
			"doubleSided":true,
			"name":"\u30de\u30c6\u30ea\u30a2\u30eb",
			"pbrMetallicRoughness":{
				"baseColorFactor":[
					0.800000011920929,
					0.800000011920929,
					0.800000011920929,
					1
				],
				"metallicFactor":0,
				"roughnessFactor":0.5
			}
		}
	],
	"meshes":[
		{
			"name":"Cube.001",
			"primitives":[
				{
					"attributes":{
						"POSITION":0,
						"NORMAL":1,
						"TEXCOORD_0":2,
						"JOINTS_0":3,
						"WEIGHTS_0":4
					},
					"indices":5,
					"material":0
				},
				{
					"attributes":{
						"POSITION":6,
						"NORMAL":7,
						"TEXCOORD_0":8,
						"JOINTS_0":9,
						"WEIGHTS_0":10
					},
					"indices":11,
					"material":1
				}
			]
		},
		{
			"name":"\u5186\u9310.046",
			"primitives":[
				{
					"attributes":{
						"POSITION":13,
						"NORMAL":14,
						"TEXCOORD_0":15,
						"JOINTS_0":16,
						"WEIGHTS_0":17
					},
					"indices":18
				}
			]
		}
	],
	"textures":[
		{
			"sampler":0,
			"source":0
		}
	],
	"images":[
		{
			"mimeType":"image/png",
			"name":"playerUV",
			"uri":"playerUV.png"
		}
	],
	"skins":[
		{
			"inverseBindMatrices":12,
			"joints":[
				0
			],
			"name":"\u30a2\u30fc\u30de\u30c1\u30e5\u30a2"
		},
		{
			"inverseBindMatrices":19,
			"joints":[
				3,
				4,
				5,
				6,
				7,
				8,
				9,
				10,
				11,
				12,
				13,
				14
			],
			"name":"\u30a2\u30fc\u30de\u30c1\u30e5\u30a2.001"
		}
	],
	"accessors":[
		{
			"bufferView":0,
			"componentType":5126,
			"count":441,
			"max":[
				0.719389021396637,
				1.151381015777588,
				0.7193889617919922
			],
			"min":[
				-0.719389021396637,
				0.010329999960958958,
				-0.7193890810012817
			],
			"type":"VEC3"
		},
		{
			"bufferView":1,
			"componentType":5126,
			"count":441,
			"type":"VEC3"
		},
		{
			"bufferView":2,
			"componentType":5126,
			"count":441,
			"type":"VEC2"
		},
		{
			"bufferView":3,
			"componentType":5121,
			"count":441,
			"type":"VEC4"
		},
		{
			"bufferView":4,
			"componentType":5126,
			"count":441,
			"type":"VEC4"
		},
		{
			"bufferView":5,
			"componentType":5123,
			"count":2304,
			"type":"SCALAR"
		},
		{
			"bufferView":6,
			"componentType":5126,
			"count":196,
			"max":[
				0.26587599515914917,
				0.8103609681129456,
				-0.584083080291748
			],
			"min":[
				-0.26587599515914917,
				0.6251779198646545,
				-0.7155300378799438
			],
			"type":"VEC3"
		},
		{
			"bufferView":7,
			"componentType":5126,
			"count":196,
			"type":"VEC3"
		},
		{
			"bufferView":8,
			"componentType":5126,
			"count":196,
			"type":"VEC2"
		},
		{
			"bufferView":9,
			"componentType":5121,
			"count":196,
			"type":"VEC4"
		},
		{
			"bufferView":10,
			"componentType":5126,
			"count":196,
			"type":"VEC4"
		},
		{
			"bufferView":11,
			"componentType":5123,
			"count":1152,
			"type":"SCALAR"
		},
		{
			"bufferView":12,
			"componentType":5126,
			"count":1,
			"type":"MAT4"
		},
		{
			"bufferView":13,
			"componentType":5126,
			"count":144,
			"max":[
				5.540040493011475,
				0.7809141874313354,
				0.10011433064937592
			],
			"min":[
				1.3978646993637085,
				-0.09910228848457336,
				-1.876845359802246
			],
			"type":"VEC3"
		},
		{
			"bufferView":14,
			"componentType":5126,
			"count":144,
			"type":"VEC3"
		},
		{
			"bufferView":15,
			"componentType":5126,
			"count":144,
			"type":"VEC2"
		},
		{
			"bufferView":16,
			"componentType":5121,
			"count":144,
			"type":"VEC4"
		},
		{
			"bufferView":17,
			"componentType":5126,
			"count":144,
			"type":"VEC4"
		},
		{
			"bufferView":18,
			"componentType":5123,
			"count":144,
			"type":"SCALAR"
		},
		{
			"bufferView":19,
			"componentType":5126,
			"count":12,
			"type":"MAT4"
		},
		{
			"bufferView":20,
			"componentType":5126,
			"count":2,
			"max":[
				0.6166666666666667
			],
			"min":[
				0
			],
			"type":"SCALAR"
		},
		{
			"bufferView":21,
			"componentType":5126,
			"count":2,
			"type":"VEC3"
		},
		{
			"bufferView":22,
			"componentType":5126,
			"count":2,
			"type":"VEC4"
		},
		{
			"bufferView":23,
			"componentType":5126,
			"count":38,
			"max":[
				0.6166666666666667
			],
			"min":[
				0
			],
			"type":"SCALAR"
		},
		{
			"bufferView":24,
			"componentType":5126,
			"count":38,
			"type":"VEC3"
		},
		{
			"bufferView":25,
			"componentType":5126,
			"count":2,
			"max":[
				0.5
			],
			"min":[
				0
			],
			"type":"SCALAR"
		},
		{
			"bufferView":26,
			"componentType":5126,
			"count":2,
			"type":"VEC3"
		},
		{
			"bufferView":27,
			"componentType":5126,
			"count":2,
			"type":"VEC4"
		},
		{
			"bufferView":28,
			"componentType":5126,
			"count":2,
			"type":"VEC3"
		},
		{
			"bufferView":29,
			"componentType":5126,
			"count":2,
			"type":"VEC3"
		},
		{
			"bufferView":30,
			"componentType":5126,
			"count":2,
			"type":"VEC4"
		},
		{
			"bufferView":31,
			"componentType":5126,
			"count":2,
			"type":"VEC3"
		},
		{
			"bufferView":32,
			"componentType":5126,
			"count":2,
			"type":"VEC3"
		},
		{
			"bufferView":33,
			"componentType":5126,
			"count":2,
			"type":"VEC4"
		},
		{
			"bufferView":34,
			"componentType":5126,
			"count":2,
			"type":"VEC3"
		},
		{
			"bufferView":35,
			"componentType":5126,
			"count":2,
			"type":"VEC3"
		},
		{
			"bufferView":36,
			"componentType":5126,
			"count":2,
			"type":"VEC4"
		},
		{
			"bufferView":37,
			"componentType":5126,
			"count":2,
			"type":"VEC3"
		},
		{
			"bufferView":38,
			"componentType":5126,
			"count":2,
			"type":"VEC3"
		},
		{
			"bufferView":39,
			"componentType":5126,
			"count":2,
			"type":"VEC4"
		},
		{
			"bufferView":40,
			"componentType":5126,
			"count":2,
			"type":"VEC3"
		},
		{
			"bufferView":41,
			"componentType":5126,
			"count":2,
			"type":"VEC3"
		},
		{
			"bufferView":42,
			"componentType":5126,
			"count":2,
			"type":"VEC4"
		},
		{
			"bufferView":43,
			"componentType":5126,
			"count":2,
			"type":"VEC3"
		},
		{
			"bufferView":44,
			"componentType":5126,
			"count":2,
			"type":"VEC3"
		},
		{
			"bufferView":45,
			"componentType":5126,
			"count":2,
			"type":"VEC4"
		},
		{
			"bufferView":46,
			"componentType":5126,
			"count":31,
			"max":[
				0.5
			],
			"min":[
				0
			],
			"type":"SCALAR"
		},
		{
			"bufferView":47,
			"componentType":5126,
			"count":31,
			"type":"VEC3"
		},
		{
			"bufferView":48,
			"componentType":5126,
			"count":2,
			"type":"VEC3"
		},
		{
			"bufferView":49,
			"componentType":5126,
			"count":2,
			"type":"VEC4"
		},
		{
			"bufferView":50,
			"componentType":5126,
			"count":2,
			"type":"VEC3"
		},
		{
			"bufferView":51,
			"componentType":5126,
			"count":2,
			"type":"VEC3"
		},
		{
			"bufferView":52,
			"componentType":5126,
			"count":2,
			"type":"VEC4"
		},
		{
			"bufferView":53,
			"componentType":5126,
			"count":2,
			"type":"VEC3"
		},
		{
			"bufferView":54,
			"componentType":5126,
			"count":2,
			"type":"VEC3"
		},
		{
			"bufferView":55,
			"componentType":5126,
			"count":2,
			"type":"VEC4"
		},
		{
			"bufferView":56,
			"componentType":5126,
			"count":2,
			"type":"VEC3"
		},
		{
			"bufferView":57,
			"componentType":5126,
			"count":2,
			"type":"VEC3"
		},
		{
			"bufferView":58,
			"componentType":5126,
			"count":2,
			"type":"VEC4"
		},
		{
			"bufferView":59,
			"componentType":5126,
			"count":2,
			"type":"VEC3"
		},
		{
			"bufferView":60,
			"componentType":5126,
			"count":2,
			"type":"VEC3"
		},
		{
			"bufferView":61,
			"componentType":5126,
			"count":2,
			"type":"VEC4"
		},
		{
			"bufferView":62,
			"componentType":5126,
			"count":2,
			"type":"VEC3"
		}
	],
	"bufferViews":[
		{
			"buffer":0,
			"byteLength":5292,
			"byteOffset":0,
			"target":34962
		},
		{
			"buffer":0,
			"byteLength":5292,
			"byteOffset":5292,
			"target":34962
		},
		{
			"buffer":0,
			"byteLength":3528,
			"byteOffset":10584,
			"target":34962
		},
		{
			"buffer":0,
			"byteLength":1764,
			"byteOffset":14112,
			"target":34962
		},
		{
			"buffer":0,
			"byteLength":7056,
			"byteOffset":15876,
			"target":34962
		},
		{
			"buffer":0,
			"byteLength":4608,
			"byteOffset":22932,
			"target":34963
		},
		{
			"buffer":0,
			"byteLength":2352,
			"byteOffset":27540,
			"target":34962
		},
		{
			"buffer":0,
			"byteLength":2352,
			"byteOffset":29892,
			"target":34962
		},
		{
			"buffer":0,
			"byteLength":1568,
			"byteOffset":32244,
			"target":34962
		},
		{
			"buffer":0,
			"byteLength":784,
			"byteOffset":33812,
			"target":34962
		},
		{
			"buffer":0,
			"byteLength":3136,
			"byteOffset":34596,
			"target":34962
		},
		{
			"buffer":0,
			"byteLength":2304,
			"byteOffset":37732,
			"target":34963
		},
		{
			"buffer":0,
			"byteLength":64,
			"byteOffset":40036
		},
		{
			"buffer":0,
			"byteLength":1728,
			"byteOffset":40100,
			"target":34962
		},
		{
			"buffer":0,
			"byteLength":1728,
			"byteOffset":41828,
			"target":34962
		},
		{
			"buffer":0,
			"byteLength":1152,
			"byteOffset":43556,
			"target":34962
		},
		{
			"buffer":0,
			"byteLength":576,
			"byteOffset":44708,
			"target":34962
		},
		{
			"buffer":0,
			"byteLength":2304,
			"byteOffset":45284,
			"target":34962
		},
		{
			"buffer":0,
			"byteLength":288,
			"byteOffset":47588,
			"target":34963
		},
		{
			"buffer":0,
			"byteLength":768,
			"byteOffset":47876
		},
		{
			"buffer":0,
			"byteLength":8,
			"byteOffset":48644
		},
		{
			"buffer":0,
			"byteLength":24,
			"byteOffset":48652
		},
		{
			"buffer":0,
			"byteLength":32,
			"byteOffset":48676
		},
		{
			"buffer":0,
			"byteLength":152,
			"byteOffset":48708
		},
		{
			"buffer":0,
			"byteLength":456,
			"byteOffset":48860
		},
		{
			"buffer":0,
			"byteLength":8,
			"byteOffset":49316
		},
		{
			"buffer":0,
			"byteLength":24,
			"byteOffset":49324
		},
		{
			"buffer":0,
			"byteLength":32,
			"byteOffset":49348
		},
		{
			"buffer":0,
			"byteLength":24,
			"byteOffset":49380
		},
		{
			"buffer":0,
			"byteLength":24,
			"byteOffset":49404
		},
		{
			"buffer":0,
			"byteLength":32,
			"byteOffset":49428
		},
		{
			"buffer":0,
			"byteLength":24,
			"byteOffset":49460
		},
		{
			"buffer":0,
			"byteLength":24,
			"byteOffset":49484
		},
		{
			"buffer":0,
			"byteLength":32,
			"byteOffset":49508
		},
		{
			"buffer":0,
			"byteLength":24,
			"byteOffset":49540
		},
		{
			"buffer":0,
			"byteLength":24,
			"byteOffset":49564
		},
		{
			"buffer":0,
			"byteLength":32,
			"byteOffset":49588
		},
		{
			"buffer":0,
			"byteLength":24,
			"byteOffset":49620
		},
		{
			"buffer":0,
			"byteLength":24,
			"byteOffset":49644
		},
		{
			"buffer":0,
			"byteLength":32,
			"byteOffset":49668
		},
		{
			"buffer":0,
			"byteLength":24,
			"byteOffset":49700
		},
		{
			"buffer":0,
			"byteLength":24,
			"byteOffset":49724
		},
		{
			"buffer":0,
			"byteLength":32,
			"byteOffset":49748
		},
		{
			"buffer":0,
			"byteLength":24,
			"byteOffset":49780
		},
		{
			"buffer":0,
			"byteLength":24,
			"byteOffset":49804
		},
		{
			"buffer":0,
			"byteLength":32,
			"byteOffset":49828
		},
		{
			"buffer":0,
			"byteLength":124,
			"byteOffset":49860
		},
		{
			"buffer":0,
			"byteLength":372,
			"byteOffset":49984
		},
		{
			"buffer":0,
			"byteLength":24,
			"byteOffset":50356
		},
		{
			"buffer":0,
			"byteLength":32,
			"byteOffset":50380
		},
		{
			"buffer":0,
			"byteLength":24,
			"byteOffset":50412
		},
		{
			"buffer":0,
			"byteLength":24,
			"byteOffset":50436
		},
		{
			"buffer":0,
			"byteLength":32,
			"byteOffset":50460
		},
		{
			"buffer":0,
			"byteLength":24,
			"byteOffset":50492
		},
		{
			"buffer":0,
			"byteLength":24,
			"byteOffset":50516
		},
		{
			"buffer":0,
			"byteLength":32,
			"byteOffset":50540
		},
		{
			"buffer":0,
			"byteLength":24,
			"byteOffset":50572
		},
		{
			"buffer":0,
			"byteLength":24,
			"byteOffset":50596
		},
		{
			"buffer":0,
			"byteLength":32,
			"byteOffset":50620
		},
		{
			"buffer":0,
			"byteLength":24,
			"byteOffset":50652
		},
		{
			"buffer":0,
			"byteLength":24,
			"byteOffset":50676
		},
		{
			"buffer":0,
			"byteLength":32,
			"byteOffset":50700
		},
		{
			"buffer":0,
			"byteLength":24,
			"byteOffset":50732
		}
	],
	"samplers":[
		{
			"magFilter":9729,
			"minFilter":9987
		}
	],
	"buffers":[
		{
			"byteLength":50756,
			"uri":"player_spike_test.bin"
		}
	]
}
